<?xml version="1.0" encoding="utf-8"?>
<!-- Generator: Adobe Illustrator 22.0.1, SVG Export Plug-In . SVG Version: 6.00 Build 0)  -->
<svg version="1.1" id="Layer_1" xmlns="http://www.w3.org/2000/svg" xmlns:xlink="http://www.w3.org/1999/xlink" x="0px" y="0px"
	 viewBox="0 0 24 24" style="enable-background:new 0 0 24 24;" xml:space="preserve">
<style type="text/css">
	.st0{fill:#BD234F;}
</style>
<g>
	<path id="Vector_19_4_" class="st0" d="M0.7,21.6c0,0.6,0.2,1.1,0.6,1.5c0.4,0.4,0.9,0.6,1.5,0.6h18.4c0.6,0,1.1-0.2,1.5-0.6
		c0.4-0.4,0.6-0.9,0.6-1.5V6.3H0.7L0.7,21.6z M15,19.5c0,0.1,0,0.2-0.1,0.2c-0.1,0.1-0.2,0.1-0.2,0.1h-1c-0.1,0-0.2,0-0.2-0.1
		c-0.1-0.1-0.1-0.1-0.1-0.2v-0.2c0-0.1,0-0.2,0.1-0.2c0.1-0.1,0.1-0.1,0.2-0.1h1c0.1,0,0.2,0,0.2,0.1c0.1,0.1,0.1,0.1,0.1,0.2V19.5z
		 M17.7,8.5c0,0,0-0.1,0-0.1c0,0,0-0.1,0.1-0.1c0,0,0.1-0.1,0.1-0.1c0,0,0.1,0,0.1,0h1c0.1,0,0.2,0,0.2,0.1c0.1,0.1,0.1,0.2,0.1,0.2
		v0.2c0,0.1,0,0.2-0.1,0.2c-0.1,0.1-0.2,0.1-0.2,0.1h-1c0,0-0.1,0-0.1,0c0,0-0.1,0-0.1-0.1c0,0-0.1-0.1-0.1-0.1c0,0,0-0.1,0-0.1V8.5
		z M17.7,12.1c0,0,0-0.1,0-0.1c0,0,0-0.1,0.1-0.1c0,0,0.1-0.1,0.1-0.1c0,0,0.1,0,0.1,0h1c0.1,0,0.2,0,0.2,0.1
		c0.1,0.1,0.1,0.2,0.1,0.2v0.2c0,0.1,0,0.2-0.1,0.2c-0.1,0.1-0.2,0.1-0.2,0.1h-1c0,0-0.1,0-0.1,0c0,0-0.1,0-0.1-0.1
		c0,0-0.1-0.1-0.1-0.1c0,0,0-0.1,0-0.1V12.1z M17.7,15.7c0,0,0-0.1,0-0.1c0,0,0-0.1,0.1-0.1c0,0,0.1-0.1,0.1-0.1c0,0,0.1,0,0.1,0h1
		c0.1,0,0.2,0,0.2,0.1c0.1,0.1,0.1,0.2,0.1,0.2v0.2c0,0,0,0.1,0,0.1c0,0,0,0.1-0.1,0.1c0,0-0.1,0.1-0.1,0.1c0,0-0.1,0-0.1,0h-1
		c0,0-0.1,0-0.1,0c0,0-0.1,0-0.1-0.1c0,0-0.1-0.1-0.1-0.1c0,0,0-0.1,0-0.1V15.7z M17.7,19.2c0,0,0-0.1,0-0.1c0,0,0-0.1,0.1-0.1
		c0,0,0.1-0.1,0.1-0.1c0,0,0.1,0,0.1,0h1c0.1,0,0.2,0,0.2,0.1c0.1,0.1,0.1,0.2,0.1,0.2v0.2c0,0.1,0,0.2-0.1,0.2
		c-0.1,0.1-0.2,0.1-0.2,0.1h-1c0,0-0.1,0-0.1,0c0,0-0.1,0-0.1-0.1c0,0-0.1-0.1-0.1-0.1c0,0,0-0.1,0-0.1V19.2z M13.3,8.5
		c0-0.1,0-0.2,0.1-0.2c0.1-0.1,0.2-0.1,0.2-0.1h1c0.1,0,0.2,0,0.2,0.1C15,8.3,15,8.4,15,8.5v0.2c0,0.1,0,0.2-0.1,0.2
		c-0.1,0.1-0.2,0.1-0.2,0.1h-1c-0.1,0-0.2,0-0.2-0.1c-0.1-0.1-0.1-0.2-0.1-0.2V8.5z M13.3,12.1c0-0.1,0-0.2,0.1-0.2
		c0.1-0.1,0.2-0.1,0.2-0.1h1c0.1,0,0.2,0,0.2,0.1C15,11.9,15,12,15,12.1v0.2c0,0.1,0,0.2-0.1,0.2c-0.1,0.1-0.2,0.1-0.2,0.1h-1
		c-0.1,0-0.2,0-0.2-0.1c-0.1-0.1-0.1-0.2-0.1-0.2V12.1z M12.1,14.9c0.3-0.1,0.6-0.1,0.9-0.1c0.1,0,0.1,0,0.2,0c0.1,0,0.1,0,0.2,0
		c0,0,0.1-0.1,0.1-0.1c0.1-0.3,0.3-0.5,0.4-0.8c0-0.1,0.1-0.1,0.1-0.2c0-0.1,0.1-0.1,0.2-0.1c0.1,0,0.2,0,0.3,0
		c0.1,0,0.2,0.1,0.2,0.2c0.2,0.3,0.3,0.6,0.4,0.9c0,0.1,0.1,0.1,0.1,0.2c0.1,0,0.1,0.1,0.2,0.1c0.3,0,0.6,0.1,0.9,0.1
		c0.1,0,0.2,0,0.2,0.1c0.1,0.1,0.1,0.1,0.1,0.2c0,0.1,0,0.2,0,0.2c0,0.1-0.1,0.1-0.1,0.2c-0.3,0.2-0.5,0.5-0.8,0.8c0,0,0,0,0,0.1
		c0,0,0,0,0,0.1c0.1,0.3,0.1,0.7,0.2,1c0,0.1,0,0.2,0,0.2c0,0.1-0.1,0.1-0.1,0.2c-0.1,0.1-0.2,0.1-0.2,0.1c-0.1,0-0.2,0-0.3-0.1
		c-0.3-0.2-0.6-0.3-0.9-0.5c0,0-0.1,0-0.1,0c0,0-0.1,0-0.1,0c-0.3,0.2-0.6,0.3-0.9,0.5c-0.1,0-0.1,0.1-0.2,0.1c-0.1,0-0.2,0-0.2-0.1
		c-0.1,0-0.1-0.1-0.2-0.2c0-0.1-0.1-0.1,0-0.2c0-0.3,0.1-0.5,0.1-0.8c0.1-0.4,0.1-0.4-0.2-0.6c-0.2-0.2-0.4-0.4-0.6-0.6
		c-0.1-0.1-0.1-0.1-0.1-0.2c0-0.1,0-0.1,0-0.2c0-0.1,0.1-0.1,0.1-0.2C12,15,12,14.9,12.1,14.9L12.1,14.9z M9,8.5
		c0-0.1,0-0.2,0.1-0.2c0.1-0.1,0.2-0.1,0.2-0.1h1c0.1,0,0.2,0,0.2,0.1c0.1,0.1,0.1,0.2,0.1,0.2v0.2c0,0.1,0,0.2-0.1,0.2
		c-0.1,0.1-0.1,0.1-0.2,0.1h-1C9.2,9.1,9.1,9,9.1,9C9,8.9,9,8.8,9,8.7V8.5z M9,12.1c0,0,0-0.1,0-0.1c0,0,0-0.1,0.1-0.1
		c0,0,0.1-0.1,0.1-0.1c0,0,0.1,0,0.1,0h1c0.1,0,0.2,0,0.2,0.1c0.1,0.1,0.1,0.1,0.1,0.2v0.2c0,0.1,0,0.2-0.1,0.2
		c-0.1,0.1-0.1,0.1-0.2,0.1h-1c-0.1,0-0.2,0-0.2-0.1C9,12.5,9,12.4,9,12.3V12.1z M9,15.7c0-0.1,0-0.2,0.1-0.2
		c0.1-0.1,0.2-0.1,0.2-0.1h1c0.1,0,0.2,0,0.2,0.1c0.1,0.1,0.1,0.2,0.1,0.2v0.2c0,0.1,0,0.2-0.1,0.2c-0.1,0.1-0.1,0.1-0.2,0.1h-1
		c-0.1,0-0.2,0-0.2-0.1C9,16.1,9,16,9,15.9V15.7z M9,19.2c0-0.1,0-0.2,0.1-0.2c0.1-0.1,0.1-0.1,0.2-0.1h1c0.1,0,0.2,0,0.2,0.1
		c0.1,0.1,0.1,0.1,0.1,0.2v0.2c0,0.1,0,0.2-0.1,0.2c-0.1,0.1-0.2,0.1-0.2,0.1h-1c-0.1,0-0.2,0-0.2-0.1C9,19.6,9,19.5,9,19.4L9,19.2z
		 M4.6,12.1c0-0.1,0-0.2,0.1-0.2c0.1-0.1,0.1-0.1,0.2-0.1h1c0.1,0,0.2,0,0.2,0.1c0.1,0.1,0.1,0.1,0.1,0.2v0.2c0,0.1,0,0.2-0.1,0.2
		c-0.1,0.1-0.2,0.1-0.2,0.1h-1c-0.1,0-0.2,0-0.2-0.1c-0.1-0.1-0.1-0.2-0.1-0.2V12.1z M4.6,15.7c0-0.1,0-0.2,0.1-0.2
		c0.1-0.1,0.2-0.1,0.2-0.1h1c0.1,0,0.2,0,0.2,0.1c0.1,0.1,0.1,0.2,0.1,0.2v0.2c0,0.1,0,0.2-0.1,0.2c-0.1,0.1-0.2,0.1-0.2,0.1h-1
		c-0.1,0-0.2,0-0.2-0.1C4.6,16,4.6,16,4.6,15.9V15.7z M4.6,19.2c0-0.1,0-0.2,0.1-0.2c0.1-0.1,0.1-0.1,0.2-0.1h1c0.1,0,0.2,0,0.2,0.1
		c0.1,0.1,0.1,0.1,0.1,0.2v0.2c0,0.1,0,0.2-0.1,0.2c-0.1,0.1-0.2,0.1-0.2,0.1h-1c-0.1,0-0.2,0-0.2-0.1c-0.1-0.1-0.1-0.2-0.1-0.2
		L4.6,19.2z"/>
	<path id="Vector_20_4_" class="st0" d="M21.2,3h-2.6V1.6c0-0.2,0-0.3-0.1-0.5c-0.1-0.2-0.1-0.3-0.2-0.4c-0.1-0.1-0.2-0.2-0.4-0.3
		c-0.1-0.1-0.3-0.1-0.5-0.1c-0.2,0-0.3,0-0.5,0.1c-0.1,0.1-0.3,0.2-0.4,0.3c-0.1,0.1-0.2,0.3-0.2,0.4c-0.1,0.2-0.1,0.3-0.1,0.5v1.4
		H7.7V1.6c0-0.2,0-0.3-0.1-0.5S7.6,0.8,7.4,0.7C7.3,0.6,7.2,0.5,7.1,0.4C6.9,0.4,6.7,0.3,6.6,0.3c-0.2,0-0.3,0-0.5,0.1
		C6,0.5,5.8,0.6,5.7,0.7C5.6,0.8,5.5,1,5.5,1.1S5.4,1.4,5.4,1.6v1.4H2.8c-0.5,0-1,0.2-1.4,0.5C1,3.9,0.8,4.3,0.7,4.8h22.6
		c-0.1-0.5-0.3-0.9-0.7-1.3C22.2,3.2,21.7,3,21.2,3z"/>
</g>
</svg>
