<?xml version="1.0" encoding="utf-8"?>
<!-- Generator: Adobe Illustrator 22.0.1, SVG Export Plug-In . SVG Version: 6.00 Build 0)  -->
<svg version="1.1" id="Layer_1" xmlns="http://www.w3.org/2000/svg" xmlns:xlink="http://www.w3.org/1999/xlink" x="0px" y="0px"
	 viewBox="0 0 24 24" style="enable-background:new 0 0 24 24;" xml:space="preserve">
<style type="text/css">
	.st0{fill:#BD234F;}
</style>
<g>
	<path class="st0" d="M23.5,6.4c0-0.2-0.1-0.4-0.1-0.7c-0.1-0.2-0.2-0.4-0.4-0.6c-0.2-0.2-0.4-0.3-0.6-0.4c-0.2-0.1-0.4-0.1-0.7-0.1
		l-19.7,0c-0.2,0-0.5,0-0.7,0.1C1.2,5,1,5.1,0.8,5.2C0.7,5.4,0.5,5.6,0.5,5.8C0.4,6,0.3,6.2,0.3,6.4l0.1,7.7l23.2,0L23.5,6.4z
		 M7.1,9.8c-0.1,0.3-0.3,0.6-0.5,0.9c-0.2,0.3-0.5,0.5-0.8,0.6c-0.3,0.2-0.6,0.2-1,0.3c-0.5,0-1-0.1-1.5-0.3
		c-0.5-0.2-0.8-0.6-1.1-1.1C2.1,9.7,2,9.2,2.1,8.7c0.1-0.5,0.3-1,0.6-1.3C3,7,3.4,6.7,3.9,6.6c0.5-0.1,1-0.1,1.5,0
		C5.9,6.8,6.4,7,6.7,7.4C7,7.8,7.2,8.3,7.2,8.8C7.3,9.1,7.2,9.5,7.1,9.8z"/>
	<path class="st0" d="M23.7,17L0.5,17l0,0.6c0,0.5,0.2,0.9,0.5,1.2c0.3,0.3,0.8,0.5,1.2,0.5l19.7,0c0.2,0,0.5,0,0.7-0.1
		c0.2-0.1,0.4-0.2,0.6-0.4c0.2-0.2,0.3-0.3,0.4-0.6c0.1-0.2,0.1-0.4,0.1-0.7L23.7,17z"/>
</g>
</svg>
