<?xml version="1.0" encoding="utf-8"?>
<!-- Generator: Adobe Illustrator 22.0.1, SVG Export Plug-In . SVG Version: 6.00 Build 0)  -->
<svg version="1.1" id="Layer_1" xmlns="http://www.w3.org/2000/svg" xmlns:xlink="http://www.w3.org/1999/xlink" x="0px" y="0px"
	 viewBox="0 0 24 24" style="enable-background:new 0 0 24 24;" xml:space="preserve">
<style type="text/css">
	.st0{fill:#FFFFFF;}
	.st1{fill:#F38B00;}
</style>
<g>
	<path id="Clip_2_1_" class="st0" d="M12,5.1H0.6v13.9H12V5.1L12,5.1z"/>
	<path id="Clip_5_1_" class="st0" d="M23.4,5.1H12v13.9h11.4V5.1L23.4,5.1z"/>
	<path class="st1" d="M14.6,12c0-2.2-1-4.1-2.6-5.4C10.4,7.9,9.4,9.8,9.4,12s1,4.1,2.6,5.4C13.6,16.1,14.6,14.2,14.6,12z"/>
</g>
<path id="Clip_2_2_" class="st0" d="M22.2,783H1.8v25h20.5V783L22.2,783z"/>
<path id="Clip_5_2_" class="st0" d="M22.2,783H1.8v25h20.5V783L22.2,783z"/>
<path class="st1" d="M16.7,795.5c0-3.9-1.9-7.5-4.7-9.7c-2.9,2.3-4.7,5.8-4.7,9.7s1.9,7.5,4.7,9.7C14.9,803,16.7,799.4,16.7,795.5z"
	/>
</svg>
