<?xml version="1.0" encoding="utf-8"?>
<!-- Generator: Adobe Illustrator 22.0.1, SVG Export Plug-In . SVG Version: 6.00 Build 0)  -->
<svg version="1.1" id="Layer_1" xmlns="http://www.w3.org/2000/svg" xmlns:xlink="http://www.w3.org/1999/xlink" x="0px" y="0px"
	 viewBox="0 0 24 24" style="enable-background:new 0 0 24 24;" xml:space="preserve">
<style type="text/css">
	.st0{fill:#BD234F;}
</style>
<path id="Ticket_1_" class="st0" d="M23.6,14.2l-8.5-8.5c-0.1-0.1-0.2-0.2-0.3-0.2c-0.1,0-0.2-0.1-0.4,0l-0.7,0.1
	c-0.1,0-0.1,0-0.2,0c-0.1,0-0.1-0.1-0.1-0.1c0,0-0.1-0.1-0.1-0.1c0-0.1,0-0.1,0-0.2l0.1-0.7c0-0.1,0-0.2,0-0.4
	c0-0.1-0.1-0.2-0.2-0.3L9.9,0.3C9.8,0.3,9.7,0.2,9.5,0.2c-0.1,0-0.2,0-0.3,0.1L8.1,1.5C8,1.5,8,1.6,8,1.6c0,0.1,0,0.1,0,0.2
	C8.1,2,8.2,2.2,8.2,2.4c0,0.2-0.1,0.4-0.2,0.5C7.9,3,7.8,3.1,7.6,3.2C7.5,3.3,7.3,3.3,7.1,3.3c-0.1,0-0.3,0-0.4-0.1
	c-0.1,0-0.1-0.1-0.2,0c-0.1,0-0.1,0-0.2,0.1L5.7,3.9C5.6,3.9,5.6,4,5.6,4.1c0,0.1,0,0.1,0.1,0.2c0.1,0.2,0.2,0.3,0.2,0.5
	c0,0.2,0,0.4-0.1,0.5C5.5,5.5,5.3,5.7,5.1,5.8c-0.2,0.1-0.5,0-0.7-0.1c0,0-0.1,0-0.1-0.1c-0.1,0-0.1-0.1-0.2-0.1
	c-0.1,0-0.1,0-0.2,0.1L3.2,6.4c-0.1,0-0.1,0.1-0.1,0.2c0,0.1,0,0.1,0,0.2C3.2,6.9,3.3,7,3.3,7.2c0,0.2-0.1,0.3-0.1,0.5
	C3,7.8,2.9,7.9,2.8,8C2.6,8.1,2.5,8.1,2.3,8.1C2.1,8.1,2,8.1,1.8,8C1.8,8,1.7,8,1.6,8C1.6,8,1.5,8,1.5,8.1L0.4,9.2
	C0.3,9.3,0.2,9.4,0.2,9.5c0,0.1,0.1,0.2,0.1,0.3l3.3,3.3c0.1,0.1,0.2,0.2,0.3,0.2c0.1,0,0.2,0.1,0.4,0L5,13.3c0.1,0,0.1,0,0.2,0
	c0.1,0,0.1,0.1,0.1,0.1c0,0,0.1,0.1,0.1,0.1c0,0.1,0,0.1,0,0.2l-0.1,0.7c0,0.1,0,0.2,0,0.4c0,0.1,0.1,0.2,0.2,0.3l8.5,8.5
	c0.1,0.1,0.2,0.1,0.3,0.1c0.1,0,0.2,0,0.3-0.1l1.1-1.1c0,0,0.1-0.1,0.1-0.2c0-0.1,0-0.1,0-0.2c-0.1-0.2-0.2-0.3-0.2-0.5
	c0-0.2,0-0.4,0.1-0.6c0.1-0.2,0.3-0.3,0.6-0.4c0.2-0.1,0.5,0,0.7,0.1c0.1,0,0.1,0.1,0.2,0.1c0.1,0,0.1,0.1,0.2,0
	c0.1,0,0.1,0,0.2-0.1l0.8-0.8c0,0,0.1-0.1,0.1-0.1c0-0.1,0-0.1,0-0.2c-0.1-0.1-0.1-0.3-0.1-0.5c0-0.2,0-0.3,0.1-0.5
	c0.1-0.2,0.3-0.3,0.5-0.4c0.4-0.1,0.6-0.1,0.8,0c0.1,0,0.1,0,0.2,0c0.1,0,0.1,0,0.2-0.1l0.8-0.8c0,0,0.1-0.1,0.1-0.2
	c0-0.1,0-0.1,0-0.2c-0.1-0.2-0.2-0.4-0.2-0.6c0-0.2,0.1-0.4,0.2-0.6c0.1-0.1,0.3-0.3,0.4-0.3c0.2-0.1,0.4-0.1,0.5-0.1
	c0.1,0,0.3,0.1,0.4,0.1c0.1,0,0.1,0,0.2,0c0.1,0,0.1,0,0.2-0.1l1.1-1.1c0.1-0.1,0.1-0.2,0.1-0.3C23.8,14.4,23.7,14.2,23.6,14.2z
	 M6.9,12.4l-0.2,0.2c-0.1,0.1-0.2,0.1-0.3,0.1c-0.1,0-0.2,0-0.3-0.1c-0.1-0.1-0.1-0.2-0.1-0.3c0-0.1,0-0.2,0.1-0.3l0.2-0.2
	c0.1-0.1,0.2-0.1,0.3-0.1c0.1,0,0.2,0,0.3,0.1C7,11.8,7,11.9,7,12C7,12.2,7,12.3,6.9,12.4z M8.7,10.5l-0.4,0.4c0,0-0.1,0.1-0.1,0.1
	c-0.1,0-0.1,0-0.2,0c-0.1,0-0.1,0-0.2,0c-0.1,0-0.1-0.1-0.1-0.1c0,0-0.1-0.1-0.1-0.1c0-0.1,0-0.1,0-0.2c0-0.1,0-0.1,0-0.2
	c0-0.1,0.1-0.1,0.1-0.1l0.4-0.4c0.1-0.1,0.2-0.1,0.3-0.1c0.1,0,0.2,0,0.3,0.1c0.1,0.1,0.1,0.2,0.1,0.3C8.8,10.3,8.8,10.4,8.7,10.5z
	 M10.5,8.7l-0.4,0.4c-0.1,0.1-0.2,0.1-0.3,0.1c-0.1,0-0.2,0-0.3-0.1C9.5,9,9.4,8.9,9.4,8.8c0-0.1,0.1-0.2,0.1-0.3l0.4-0.4
	C10,8,10.1,8,10.2,8c0.1,0,0.2,0,0.3,0.1c0.1,0.1,0.1,0.2,0.1,0.3C10.7,8.5,10.6,8.6,10.5,8.7z M11.4,6.7l0.2-0.2
	c0,0,0.1-0.1,0.1-0.1c0.1,0,0.1,0,0.2,0c0.1,0,0.1,0,0.2,0c0.1,0,0.1,0.1,0.1,0.1c0,0,0.1,0.1,0.1,0.1c0,0.1,0,0.1,0,0.2
	c0,0.1,0,0.1,0,0.2c0,0.1-0.1,0.1-0.1,0.1L12,7.3c-0.1,0.1-0.2,0.1-0.3,0.1c-0.1,0-0.2,0-0.3-0.1c-0.1-0.1-0.1-0.2-0.1-0.3
	C11.2,6.9,11.3,6.7,11.4,6.7z M18.4,12.9l-3.1,1.2c0,0-0.1,0-0.1,0.1c0,0,0,0.1-0.1,0.1c0,0,0,0.1,0,0.1c0,0,0,0.1,0.1,0.1
	c0.5,0.6,1,1.1,1.6,1.7c0,0,0.1,0,0.1,0c0,0,0.1,0,0.1,0c0.4-0.1,0.7-0.1,1.1-0.2c0,0,0.1,0,0.1,0c0,0,0.1,0,0.1,0.1l0,0
	c0,0,0.1,0.1,0.1,0.1c0,0,0,0.1,0,0.1c0,0,0,0.1,0,0.1s-0.1,0.1-0.1,0.1c-0.1,0.1-0.3,0.2-0.4,0.2c-0.4,0.2-0.7,0.5-0.9,0.9
	c-0.1,0.2-0.2,0.3-0.3,0.5c0,0,0,0.1-0.1,0.1c0,0-0.1,0-0.1,0c0,0-0.1,0-0.1,0c0,0-0.1,0-0.1-0.1c0,0,0-0.1-0.1-0.1
	c0-0.1-0.1-0.1-0.1-0.2c0.1-0.4,0.1-0.7,0.2-1.1c0,0,0-0.1,0-0.1c0,0,0-0.1-0.1-0.1c-0.5-0.4-1.4-1.3-1.8-1.6c0,0,0,0-0.1,0
	c0,0-0.1,0-0.1,0c0,0,0,0-0.1,0c0,0,0,0,0,0.1c-0.2,0.5-0.6,1.7-0.9,2.4c-0.1,0.3-0.2,0.6-0.3,0.9c0,0,0,0.1-0.1,0.1
	c0,0-0.1,0.1-0.1,0.1c-0.1,0-0.1,0-0.1,0c0,0-0.1,0-0.1-0.1c-0.1-0.1-0.1-0.2-0.2-0.2c0,0-0.1-0.1-0.1-0.2c0.1-0.7,0.2-1.4,0.3-2.1
	c0.1-0.7,0.2-1.4,0.3-2.1c0-0.1,0-0.3-0.1-0.4c-0.3-0.3-0.6-0.6-0.9-0.9c-0.2-0.2-0.3-0.4-0.3-0.6c0-0.1,0-0.2,0-0.3
	c0-0.1,0.1-0.2,0.2-0.2c0.1,0,0.1,0,0.2,0c0.1,0,0.1,0,0.2,0.1c0.2,0.1,0.4,0.2,0.6,0.4c0.3,0.3,0.6,0.6,0.9,0.9
	c0,0,0.1,0.1,0.1,0.1c0,0,0.1,0,0.1,0c0.5-0.1,0.9-0.1,1.4-0.2l2.8-0.4c0,0,0.1,0,0.1,0c0,0,0.1,0,0.1,0.1l0.2,0.2
	c0,0,0.1,0.1,0.1,0.1c0,0,0,0.1,0,0.1c0,0,0,0.1-0.1,0.1C18.5,12.9,18.4,12.9,18.4,12.9L18.4,12.9z"/>
</svg>
