<?xml version="1.0" encoding="utf-8"?>
<!-- Generator: Adobe Illustrator 22.0.1, SVG Export Plug-In . SVG Version: 6.00 Build 0)  -->
<svg version="1.1" id="Layer_1" xmlns="http://www.w3.org/2000/svg" xmlns:xlink="http://www.w3.org/1999/xlink" x="0px" y="0px"
	 viewBox="0 0 24 24" style="enable-background:new 0 0 24 24;" xml:space="preserve">
<style type="text/css">
	.st0{fill:#BD234F;}
</style>
<path class="st0" d="M18.5,8.1l4.7-4.5l-1.2-1.3L17,7.1c-1.4-0.9-3.1-1.5-5-1.5C6,5.6,1.9,12,1.7,12.3c-0.3,0.4-0.3,1,0,1.5
	c0.1,0.2,1.6,2.4,4,4.3l-2.5,2.4l1.2,1.3L7.2,19c1.4,0.8,3,1.4,4.8,1.4h0c6,0,10.1-6.4,10.3-6.6c0.3-0.4,0.3-1,0-1.4
	C22.2,12.1,20.8,10,18.5,8.1z M2.9,13c0,0,3.8-6,9.1-6c1.4,0,2.7,0.4,3.9,1.1l-1.9,1.8c-0.6-0.4-1.3-0.6-2.1-0.6
	C9.9,9.3,8.2,11,8.2,13c0,0.7,0.2,1.4,0.6,2l-2.1,2C4.4,15.2,2.9,13,2.9,13z M14.4,13c0,1.3-1.1,2.3-2.4,2.3c-0.3,0-0.5-0.1-0.8-0.1
	l3-2.9C14.3,12.5,14.4,12.7,14.4,13z M9.6,13c0-1.3,1.1-2.3,2.4-2.3c0.4,0,0.7,0.1,1,0.2L9.8,14C9.7,13.7,9.6,13.3,9.6,13z M12,19
	c-1.4,0-2.6-0.4-3.7-1l1.9-1.8c0.6,0.3,1.2,0.5,1.9,0.5c2.1,0,3.8-1.6,3.8-3.7c0-0.7-0.2-1.3-0.5-1.8l2.2-2.1
	c2.2,1.7,3.6,3.9,3.6,3.9S17.2,19,12,19z"/>
</svg>
