<?xml version="1.0" encoding="utf-8"?>
<!-- Generator: Adobe Illustrator 22.0.1, SVG Export Plug-In . SVG Version: 6.00 Build 0)  -->
<svg version="1.1" id="Layer_1" xmlns="http://www.w3.org/2000/svg" xmlns:xlink="http://www.w3.org/1999/xlink" x="0px" y="0px"
	 viewBox="0 0 24 24" style="enable-background:new 0 0 24 24;" xml:space="preserve">
<style type="text/css">
	.st0{fill:#FFFFFF;}
</style>
<path id="Vector_19" class="st0" d="M18.8,0.2H5.2c-2.6,0-4.7,2.1-4.7,4.7V19c0,2.6,2.1,4.7,4.7,4.7h7.4v-9.2H9.5V11h3.1V8.4
	c0-3.1,1.9-4.7,4.7-4.7c1.3,0,2.5,0.1,2.8,0.1V7h-1.9c-1.5,0-1.8,0.7-1.8,1.7V11h3.6l-0.5,3.6h-3.1v9.2h2.5c2.6,0,4.7-2.2,4.7-4.7
	V4.9C23.5,2.3,21.4,0.2,18.8,0.2z"/>
</svg>
