<?xml version="1.0" encoding="utf-8"?>
<!-- Generator: Adobe Illustrator 22.0.1, SVG Export Plug-In . SVG Version: 6.00 Build 0)  -->
<svg version="1.1" id="Layer_1" xmlns="http://www.w3.org/2000/svg" xmlns:xlink="http://www.w3.org/1999/xlink" x="0px" y="0px"
	 viewBox="0 0 30 30" style="enable-background:new 0 0 30 30;" xml:space="preserve">
<style type="text/css">
	.st0{fill:#BD234F;}
</style>
<path id="Vector_7_1_" class="st0" d="M23.7,0H6.3c-3.3,0-6,2.6-6,5.9v18c0,3.3,2.7,6,6,6h9.4V18.3h-3.9v-4.5h3.9v-3.4
	c0-3.9,2.4-6,5.9-6c1.7,0,3.2,0.1,3.6,0.2v4.1h-2.5c-1.9,0-2.3,0.9-2.3,2.2v2.9H25l-0.6,4.5h-4V30h3.2c3.3,0,6-2.8,6-6v-18
	C29.7,2.6,27,0,23.7,0z"/>
</svg>
