<?xml version="1.0" encoding="utf-8"?>
<!-- Generator: Adobe Illustrator 22.0.1, SVG Export Plug-In . SVG Version: 6.00 Build 0)  -->
<svg version="1.1" id="Layer_1" xmlns="http://www.w3.org/2000/svg" xmlns:xlink="http://www.w3.org/1999/xlink" x="0px" y="0px"
	 viewBox="0 0 30 30" style="enable-background:new 0 0 30 30;" xml:space="preserve">
<style type="text/css">
	.st0{fill:#BD234F;}
</style>
<path id="Vector_3_1_" class="st0" d="M23.8,8.1c-0.2-0.5-0.5-0.9-0.9-1.3c-0.4-0.4-0.8-0.7-1.4-0.9c-0.4-0.2-1-0.3-2.2-0.4
	c-1.2,0-1.6-0.1-4.7-0.1c-3.1,0-3.5,0-4.7,0.1C8.8,5.5,8.2,5.7,7.8,5.8C7.2,6.1,6.8,6.3,6.4,6.7C6,7.1,5.7,7.5,5.5,8.1
	c-0.2,0.4-0.3,1-0.4,2.2c-0.1,1.2-0.1,1.6-0.1,4.7c0,3.1,0,3.5,0.1,4.8c0.1,1.1,0.2,1.8,0.4,2.2c0.2,0.5,0.5,0.9,0.9,1.3
	c0.4,0.4,0.8,0.7,1.4,0.9c0.4,0.2,1,0.3,2.2,0.4c1.2,0,1.6,0.1,4.7,0.1c3.1,0,3.5,0,4.7-0.1c1.1-0.1,1.8-0.2,2.2-0.4
	c0.5-0.2,0.9-0.5,1.4-0.9s0.7-0.8,0.9-1.3c0.2-0.4,0.3-1,0.4-2.2c0.1-1.2,0.1-1.6,0.1-4.8c0-3.1,0-3.5-0.1-4.7
	C24.2,9.1,24,8.5,23.8,8.1z M14.7,21c-3.3,0-6-2.7-6-6c0-3.3,2.7-6,6-6c3.3,0,6,2.7,6,6C20.7,18.3,18,21,14.7,21z M20.9,10.1
	c-0.8,0-1.4-0.6-1.4-1.4s0.6-1.4,1.4-1.4c0.8,0,1.4,0.6,1.4,1.4S21.7,10.1,20.9,10.1z"/>
<path id="Vector_4_1_" class="st0" d="M23.4,0H6C2.7,0,0,2.7,0,6v18c0,3.3,2.7,6,6,6h17.4c3.3,0,6-2.7,6-6V6C29.4,2.7,26.7,0,23.4,0
	z M26.3,19.8c-0.1,1.2-0.3,2.1-0.5,2.9c-0.3,0.8-0.7,1.4-1.4,2.1c-0.7,0.7-1.3,1.1-2.1,1.3c-0.8,0.3-1.6,0.5-2.9,0.6
	c-1.2,0.1-1.6,0.1-4.8,0.1c-3.2,0-3.6,0-4.8-0.1c-1.2-0.1-2.1-0.2-2.9-0.6c-0.8-0.3-1.4-0.7-2.1-1.3c-0.7-0.7-1.1-1.3-1.4-2.1
	c-0.3-0.8-0.5-1.6-0.5-2.9c0-1.2-0.1-1.6-0.1-4.8c0-3.2,0-3.6,0.1-4.8c0.1-1.2,0.3-2.1,0.5-2.8c0.3-0.8,0.7-1.4,1.4-2.1
	C5.6,4.6,6.2,4.2,7,3.9c0.8-0.3,1.6-0.5,2.9-0.6c1.2-0.1,1.6-0.1,4.8-0.1c3.2,0,3.6,0,4.8,0.1c1.2,0.1,2.1,0.2,2.9,0.6
	c0.8,0.3,1.4,0.7,2.1,1.3c0.7,0.7,1.1,1.3,1.4,2.1c0.3,0.8,0.5,1.6,0.5,2.8c0.1,1.2,0.1,1.7,0.1,4.8C26.4,18.2,26.4,18.6,26.3,19.8z
	"/>
<path id="Vector_5_1_" class="st0" d="M14.7,18.9c2.2,0,3.9-1.8,3.9-3.9c0-2.2-1.8-3.9-3.9-3.9c-2.2,0-3.9,1.8-3.9,3.9
	C10.8,17.2,12.5,18.9,14.7,18.9z"/>
</svg>
