<?xml version="1.0" encoding="utf-8"?>
<!-- Generator: Adobe Illustrator 22.0.1, SVG Export Plug-In . SVG Version: 6.00 Build 0)  -->
<svg version="1.1" id="Layer_1" xmlns="http://www.w3.org/2000/svg" xmlns:xlink="http://www.w3.org/1999/xlink" x="0px" y="0px"
	 viewBox="0 0 192 48" style="enable-background:new 0 0 192 48;" xml:space="preserve">
<style type="text/css">
	.st0{fill:#FFFFFF;}
</style>
<g>
	<path id="Vector_20" class="st0" d="M166.1,14.7c1.7,0,3.2-1.4,3.2-3.2c0-1.7-1.4-3.2-3.2-3.2c-1.7,0-3.2,1.4-3.2,3.2
		C162.9,13.3,164.3,14.7,166.1,14.7z"/>
	<path id="Vector_21" class="st0" d="M60.3,14.7c1.7,0,3.2-1.4,3.2-3.2c0-1.7-1.4-3.2-3.2-3.2c-1.7,0-3.2,1.4-3.2,3.2
		C57.2,13.3,58.6,14.7,60.3,14.7z"/>
	<path id="Vector_22" class="st0" d="M87.5,10.2c-0.2-0.5-0.6-0.9-0.9-1.2c-0.4-0.3-0.8-0.5-1.3-0.6c-0.5-0.1-0.7-0.1-1.2-0.1h-1.6
		L81.1,19c-0.3-0.4-0.8-0.7-1.2-1.1c-0.4-0.3-0.9-0.5-1.5-0.8c-0.6-0.3-1.3-0.5-2.1-0.5c-1.2-0.1-2.5,0.1-3.9,0.5
		c-1.3,0.4-2.6,1.1-3.8,2c-1.2,1-2.2,2.2-3,3.8c-0.8,1.5-1.4,3.4-1.7,5.5c-0.2,1.6-0.1,3.1,0.3,4.5c0.4,1.4,1,2.6,1.9,3.7
		c0.9,1.1,1.8,2,3.1,2.6c0,0,0.4,0.3,1.1,0.5c1.1,0.3,2.2,0.4,3.5,0.4c1.5-0.1,2.6-0.4,3.5-0.8c0.9-0.5,1.6-1,2-1.4c0,0,0,0.1,0,0.1
		c0.2,0.5,0.6,0.9,0.9,1.2c0.4,0.3,0.8,0.5,1.3,0.5c0.5,0.1,0.7,0.1,1.2,0.1h1.6L85.6,29c0-0.2,0.1-0.4,0.1-0.5l2-16.2
		C87.9,11.2,87.7,10.7,87.5,10.2z M79.8,27.9c-0.1,1.5-0.3,2.9-0.7,3.9c-0.4,1-0.9,1.8-1.4,2.4c-0.5,0.6-1.1,1-1.7,1.3
		c-0.6,0.2-1.1,0.4-1.5,0.4c-0.4,0-0.9,0-1.5-0.2c-0.6-0.2-1.1-0.5-1.6-1c-0.5-0.5-0.9-1.2-1.2-2.2c-0.3-1-0.5-2.2-0.4-3.8
		c0.1-1.5,0.3-2.9,0.7-3.9c0.4-1,0.9-1.8,1.4-2.4c0.5-0.6,1.1-1,1.7-1.2c0.6-0.2,1.1-0.4,1.5-0.4c0.4,0,0.9,0,1.5,0.2
		c0.6,0.2,1.1,0.5,1.6,0.9c0.5,0.5,0.9,1.2,1.2,2.2C79.8,25.1,79.9,26.3,79.8,27.9z"/>
	<path id="Vector_23" class="st0" d="M60.9,17.3c-0.4-0.3-0.8-0.5-1.3-0.5c-0.5-0.1-0.7-0.1-1.2-0.1h-1.6L54.5,36
		c-0.1,0.8-0.1,1.1,0.1,1.6c0.1,0.5,0.5,1,0.8,1.3c0.3,0.3,0.8,0.7,1.3,0.8c0.5,0.1,0.8,0.2,1.4,0.2h1.7l2.4-19.3c0.2-1,0-1.5-0.2-2
		C61.6,18,61.3,17.6,60.9,17.3z"/>
	<path id="Vector_24" class="st0" d="M114.6,8.7c0-0.1-0.1-0.3-0.1-0.3H96.3c-0.9,0-2.3,0-2.4,0h0c-0.9,0-1.3,0.2-1.8,0.5
		c-0.4,0.2-0.8,0.6-1,1c-0.2,0.4-0.4,0.8-0.5,1.2c-0.1,0.4-0.3,2.1-0.3,2.3h17.3c-1.8,1.8-4,3.9-5.7,5.6c-0.9,0.9-1.8,1.8-2.8,2.7
		c-1,0.9-1.9,1.9-2.8,2.8c-0.9,0.9-1.8,1.8-2.6,2.6c-0.8,0.8-1.6,1.5-2.3,2.2c-1,1-2,2.3-2.7,3.5c-0.8,1.5-1.2,3.3-1.3,5
		c0,0.7,0,1.3,0.1,1.9c0,0,20.8,0,20.9,0c0.8,0,1.2-0.2,1.6-0.4c0.4-0.2,0.8-0.6,1-1c0.2-0.4,0.4-0.8,0.5-1.2
		c0.1-0.4,0.1-0.6,0.2-1.2c0-0.4,0.2-1.1,0.2-1.3H93.3c1.8-1.8,3.8-3.5,5.5-5.2c0.9-0.9,1.8-1.8,2.8-2.7c0.9-0.9,1.9-1.9,2.8-2.8
		c0.9-0.9,1.7-1.7,2.6-2.5c0.8-0.8,1.6-1.6,2.3-2.2c1.4-1.3,2.5-2.6,3.3-3.6c0.8-1,1.2-1.9,1.6-2.7c0.3-0.8,0.5-1.6,0.6-2.2
		S114.7,9.2,114.6,8.7z"/>
	<path id="Vector_25" class="st0" d="M166.7,17.3c-0.4-0.3-0.8-0.5-1.3-0.5c-0.5-0.1-0.7-0.1-1.2-0.1h-1.6L160.2,36
		c-0.1,0.8-0.1,1.1,0.1,1.6c0.1,0.5,0.5,1,0.8,1.3c0.3,0.3,0.8,0.7,1.3,0.8c0.5,0.1,0.8,0.2,1.4,0.2h1.7l2.4-19.3c0.2-1,0-1.5-0.2-2
		C167.4,18,167.1,17.6,166.7,17.3z"/>
	<path id="Vector_26" class="st0" d="M158,22.9c-0.5-1.5-1.2-2.8-2.1-3.8c-0.9-1-2-1.6-3.3-2.1c-1.3-0.4-2.5-0.5-3.8-0.5
		c-0.7,0.1-1.4,0.2-2,0.4c-0.6,0.2-1.2,0.5-1.7,0.7c-0.5,0.3-0.9,0.5-1.3,0.8c-0.4,0.3-0.6,0.5-0.8,0.6c0-0.1,0-0.1,0-0.2
		c0-0.1,0-0.2-0.1-0.3c0-0.1-0.1-0.2-0.1-0.3c-0.2-0.5-0.6-0.9-0.9-1.2c-0.4-0.3-0.8-0.5-1.3-0.6c-0.4-0.1-1.1-0.1-1.1-0.1h-1.7
		l-2.4,19.4c-0.2,0.9,0,1.5,0.2,2c0.2,0.5,0.6,0.9,0.9,1.2c0.4,0.3,0.8,0.5,1.3,0.6c0.5,0.1,0.6,0.1,1.1,0.1c0,0,0,0,0,0h1.7
		l1.4-11.6c0.2-1.4,0.5-2.6,0.9-3.5c0.5-0.9,0.9-1.7,1.5-2.2c0.6-0.5,1.2-0.9,1.9-1.2c0.7-0.2,1.4-0.3,2.1-0.3
		c0.7,0,1.3,0.2,1.8,0.4c0.5,0.2,1,0.7,1.4,1.2c0.4,0.6,0.6,1.4,0.7,2.4c0.1,1,0.1,2.2-0.1,3.7l-0.9,7.2c-0.2,1,0,1.5,0.2,2
		c0.2,0.5,0.6,0.9,0.9,1.2c0.4,0.3,0.8,0.5,1.3,0.6c0.5,0.1,0.6,0.1,1.1,0.1h0h1.7l1.4-11.4C158.6,26.3,158.5,24.4,158,22.9z"/>
	<path id="Vector_27" class="st0" d="M133.6,20.5c-0.5-1.3-1.2-2.2-2.2-2.8c-0.8-0.5-1.9-1-3-1.1c-1.1-0.2-2.8-0.4-4.7-0.4
		c-2.7,0-5,0.3-5.7,0.8c-0.1,0.1-0.2,0.1-0.3,0.2c-0.4,0.2-0.8,0.6-1,1c-0.2,0.4-0.4,0.8-0.5,1.2c-0.1,0.4-0.1,0.6-0.2,1.2
		c0,0.4-0.1,0.7-0.1,0.7l0.1,0c1.2-0.3,3-0.4,5.1-0.4c2.2,0,4.2,0.2,5.3,0.5c0.8,0.1,1.4,0.5,1.8,1.2c0,0,0.5,0.8,0.5,1.9
		c0,0.6-0.1,1.2-0.3,1.9c-4.5-0.7-8.1-0.6-10.8,0.4c-2.7,1-4.3,2.9-4.7,5.8c-0.2,1.4-0.1,2.5,0.3,3.5c0.4,1,1,1.8,1.8,2.5
		c0.8,0.7,1.8,1.1,2.9,1.4c1.1,0.3,2.3,0.4,3.5,0.4c1.5-0.1,2.7-0.4,3.6-0.8c0.9-0.5,1.6-1,2-1.5c0,0,0.1,0,0.1-0.1
		c0,0,0.1,0.1,0.1,0.1c0.2,0.5,0.6,0.9,0.9,1.2c0.4,0.3,0.8,0.5,1.3,0.6c0.5,0.1,0.7,0.1,1.2,0.1h1.6l1.7-13.8
		C134.3,23.6,134.1,21.8,133.6,20.5z M127.4,32.8c-0.4,0.8-0.8,1.4-1.4,1.9c-0.6,0.5-1.2,0.8-1.9,0.9c-0.7,0.2-1.4,0.3-2,0.3
		c-0.5,0-1.1-0.1-1.6-0.2c-0.5-0.1-0.9-0.3-1.2-0.5c-0.3-0.2-0.6-0.6-0.8-1c-0.2-0.4-0.2-1-0.1-1.6c0.1-0.6,0.3-1.2,0.6-1.6
		c0.3-0.4,0.7-0.8,1.1-1.1c0.5-0.3,0.9-0.5,1.4-0.6c0.5-0.1,1-0.2,1.4-0.2c0.8,0,1.5,0,2.1,0.1c0.6,0.1,1.2,0.1,1.6,0.2
		c0.5,0.1,1,0.2,1.5,0.3C128,31,127.7,32,127.4,32.8z"/>
	<path id="Vector_28" class="st0" d="M189.6,20.5c-0.5-1.3-1.2-2.2-2.2-2.8c-0.8-0.5-1.9-1-3-1.1c-1.1-0.2-2.8-0.4-4.7-0.4
		c-2.7,0-5,0.3-5.7,0.8c-0.1,0.1-0.2,0.1-0.3,0.2c-0.4,0.2-0.8,0.6-1,1c-0.2,0.4-0.4,0.8-0.5,1.2c-0.1,0.4-0.1,0.6-0.2,1.2
		c0,0.4-0.1,0.7-0.1,0.7l0.1,0c1.2-0.3,3-0.4,5.1-0.4c2.2,0,4.2,0.2,5.3,0.5c0.8,0.1,1.4,0.5,1.8,1.2c0,0,0.5,0.8,0.5,1.9
		c0,0.6-0.1,1.2-0.3,1.9c-4.5-0.7-8.1-0.6-10.8,0.4c-2.7,1-4.3,2.9-4.7,5.8c-0.2,1.4-0.1,2.5,0.3,3.5c0.4,1,1,1.8,1.8,2.5
		c0.8,0.7,1.8,1.1,2.9,1.4c1.1,0.3,2.3,0.4,3.5,0.4c1.5-0.1,2.7-0.4,3.6-0.8c0.9-0.5,1.6-1,2-1.5c0,0,0.1,0,0.1-0.1
		c0,0,0.1,0.1,0.1,0.1c0.2,0.5,0.6,0.9,0.9,1.2s0.8,0.5,1.3,0.6c0.5,0.1,0.7,0.1,1.2,0.1h1.6l1.7-13.8
		C190.3,23.6,190.2,21.8,189.6,20.5z M183.4,32.8c-0.4,0.8-0.8,1.4-1.4,1.9c-0.6,0.5-1.2,0.8-1.8,0.9c-0.7,0.2-1.4,0.3-2,0.3
		c-0.5,0-1.1-0.1-1.6-0.2c-0.5-0.1-0.9-0.3-1.2-0.5c-0.3-0.2-0.6-0.6-0.8-1c-0.2-0.4-0.2-1-0.1-1.6c0.1-0.6,0.3-1.2,0.6-1.6
		c0.3-0.4,0.7-0.8,1.1-1.1c0.5-0.3,0.9-0.5,1.4-0.6c0.5-0.1,1-0.2,1.4-0.2c0.8,0,1.5,0,2.1,0.1c0.6,0.1,1.2,0.1,1.6,0.2
		c0.5,0.1,1,0.2,1.5,0.3C184,31,183.8,32,183.4,32.8z"/>
	<path id="Vector_29" class="st0" d="M16.4,39.9l3.9-31.5H22c0.2,0,0.3,0,0.4,0c0.1,0,0.2,0,0.2,0c0.3,0,0.5,0,0.9,0.1
		c0.6,0.1,1.1,0.3,1.5,0.6c0.5,0.3,0.8,0.8,1.1,1.4c0.3,0.6,0.4,1.6,0.2,2.8l-1,7.9L37.4,9c-0.2,0-0.2-0.1-0.2-0.1
		c-1.7-0.3-3-0.8-3.8-1.1c-1.4-0.6-2.4-1.1-3.3-1.6c-0.7-0.4-1.3-0.8-2.2-1.2c-0.8-0.4-1.8-0.8-2.9-1.2c-1.9-0.6-4.1-1-6.4-1
		c-2.1,0-3.8,0.2-5.5,0.6C11.7,3.8,10.4,4.2,9,4.9c0,0-1.4,0.7-3,1.8L1.9,40c-0.2,1.2,0.8,1.8,1.6,1.6c0.1,0,0.4-0.2,0.7-0.3
		c0.8-0.4,1.6-0.7,2.4-0.9c3-0.9,6.2-1.1,9.3-0.7C16.1,39.9,16.2,39.9,16.4,39.9z"/>
	<path id="Vector_30" class="st0" d="M54.1,5.5c-0.5,0-0.7,0.1-0.9,0.3c-0.6,0.4-1.2,0.8-1.7,1c-0.9,0.5-1.6,0.8-1.6,0.8
		c-0.4,0.2-0.8,0.3-1.1,0.5c-0.5,0.2-1,0.4-1.4,0.5L31.6,24.2c0.1,0.1,0.2,0.2,0.3,0.2l13.7,13.7c-0.7,0.8-1.4,1.3-1.5,1.3
		c-0.8,0.5-1.7,0.7-2.7,0.7c-3.6,0-7-3.7-7-3.7l-7.9-7.9l-1.9-1.9l-1.9,15.4c0.2,0.1,0.4,0.2,0.4,0.2c0.1,0,0.9,0.5,0.9,0.5
		c0.2,0.1,1.2,0.6,1.1,0.5c0.3,0.2,0.7,0.3,1,0.4c0.7,0.3,1.3,0.5,1.9,0.7c0.8,0.2,1.5,0.4,2.4,0.6c0,0,0.3,0.1,0.8,0.1
		c0.7,0.1,1.5,0.2,2.5,0.2c0.5,0,0.9,0,1.5,0c0.5,0,0.9-0.1,1.5-0.1c0.4-0.1,0.8-0.1,1.2-0.2c0.3-0.1,0.6-0.1,0.9-0.2
		c0.9-0.2,1.9-0.5,2.9-0.9c0.5-0.2,1-0.4,1.4-0.6c0.5-0.2,1-0.5,1.4-0.8c0.2-0.1,1-0.6,1.8-1.2c0.7-0.5,1.5-1.2,2.1-1.8
		c0.5-0.4,1.2-1.1,2.1-2.2c0.1-0.2,0.9-1.2,1.1-1.5l3.5-28.8c0-0.2-0.1-0.6-0.3-1C54.8,5.7,54.4,5.5,54.1,5.5z"/>
</g>
</svg>
