<?xml version="1.0" encoding="utf-8"?>
<!-- Generator: Adobe Illustrator 22.0.1, SVG Export Plug-In . SVG Version: 6.00 Build 0)  -->
<svg version="1.1" id="Layer_1" xmlns="http://www.w3.org/2000/svg" xmlns:xlink="http://www.w3.org/1999/xlink" x="0px" y="0px"
	 viewBox="0 0 170 48" style="enable-background:new 0 0 170 48;" xml:space="preserve">
<style type="text/css">
	.st0{fill:#BD234F;}
	.st1{fill:#F38B00;}
</style>
<g>
	<path id="Vector_8_1_" class="st0" d="M148.3,15.6c1.6,0,2.8-1.3,2.8-2.9c0-1.6-1.3-2.8-2.8-2.8c-1.6,0-2.8,1.3-2.8,2.8
		C145.4,14.3,146.7,15.6,148.3,15.6z"/>
	<path id="Vector_9_1_" class="st0" d="M52.8,15.6c1.6,0,2.8-1.3,2.8-2.8c0-1.6-1.3-2.8-2.8-2.8c-1.6,0-2.8,1.3-2.8,2.8
		C49.9,14.3,51.2,15.6,52.8,15.6z"/>
	<path id="Vector_10_1_" class="st0" d="M77.3,11.6c-0.2-0.4-0.5-0.8-0.8-1.1c-0.3-0.2-0.7-0.4-1.2-0.5c-0.4-0.1-0.6-0.1-1.1-0.1
		h-1.4l-1.2,9.6c-0.3-0.3-0.7-0.7-1.1-1c-0.4-0.2-0.8-0.5-1.4-0.7c-0.5-0.2-1.2-0.4-1.9-0.5c-1.1-0.1-2.3,0-3.5,0.4
		c-1.2,0.4-2.4,1-3.4,1.8c-1,0.9-1.9,2-2.7,3.4c-0.8,1.4-1.3,3-1.5,5c-0.2,1.4-0.1,2.8,0.3,4.1c0.4,1.3,0.9,2.4,1.7,3.4
		c0.8,1,1.7,1.8,2.8,2.4c0,0,0.3,0.2,1,0.5c1,0.3,2,0.4,3.1,0.3c1.3,0,2.4-0.3,3.2-0.8c0.8-0.5,1.4-0.9,1.8-1.3c0,0,0,0,0,0.1
		c0.2,0.4,0.5,0.8,0.9,1.1c0.3,0.2,0.7,0.4,1.1,0.5c0.4,0.1,0.6,0.1,1.1,0.1h1.4l1.2-9.8c0-0.2,0.1-0.3,0.1-0.5l1.8-14.6
		C77.6,12.5,77.5,12,77.3,11.6z M70.4,27.5c-0.1,1.4-0.3,2.6-0.6,3.5c-0.4,0.9-0.8,1.6-1.3,2.2c-0.5,0.6-1,0.9-1.5,1.2
		c-0.5,0.2-1,0.3-1.4,0.4c-0.4,0-0.8,0-1.4-0.2c-0.5-0.1-1-0.4-1.5-0.9c-0.4-0.5-0.8-1.1-1.1-2c-0.3-0.9-0.4-2-0.4-3.4
		c0.1-1.4,0.3-2.6,0.6-3.5c0.4-0.9,0.8-1.6,1.3-2.2c0.5-0.5,1-0.9,1.5-1.1c0.5-0.2,1-0.4,1.4-0.4c0.4,0,0.8,0,1.4,0.2
		c0.5,0.1,1,0.4,1.5,0.8c0.4,0.4,0.8,1.1,1.1,1.9C70.3,25,70.5,26.1,70.4,27.5z"/>
	<path id="Vector_11_1_" class="st0" d="M53.3,18c-0.3-0.2-0.7-0.4-1.2-0.5c-0.4-0.1-0.6-0.1-1.1-0.1h-1.4l-2.1,17.4
		c-0.1,0.7-0.1,1,0.1,1.4c0.1,0.5,0.4,0.9,0.7,1.2c0.3,0.3,0.8,0.6,1.2,0.7c0.4,0.1,0.8,0.1,1.3,0.1h1.5l2.1-17.5
		c0.1-0.9,0-1.3-0.2-1.8C54,18.6,53.7,18.2,53.3,18z"/>
	<path id="Vector_12_1_" class="st0" d="M101.8,10.2c0-0.1-0.1-0.2-0.1-0.2H85.3c-0.8,0-2.1,0-2.2,0h0c-0.8,0-1.2,0.2-1.6,0.4
		c-0.4,0.2-0.7,0.6-0.9,0.9c-0.2,0.3-0.3,0.7-0.4,1.1c-0.1,0.4-0.3,1.9-0.3,2.1h15.6c-1.7,1.6-3.6,3.5-5.2,5
		c-0.8,0.8-1.7,1.6-2.5,2.5c-0.9,0.8-1.7,1.7-2.5,2.5c-0.8,0.8-1.6,1.6-2.4,2.3c-0.8,0.7-1.5,1.4-2.1,2c-0.9,0.9-1.8,2.1-2.4,3.2
		c-0.7,1.4-1.1,3-1.2,4.5c0,0.6,0,1.2,0.1,1.8c0,0,18.8,0,18.9,0c0.7,0,1.1-0.2,1.4-0.4c0.4-0.2,0.7-0.6,0.9-0.9
		c0.2-0.3,0.3-0.7,0.4-1.1c0.1-0.4,0.1-0.6,0.1-1.1c0-0.3,0.1-1,0.2-1.2H82.5c1.6-1.6,3.4-3.2,5-4.7c0.8-0.8,1.7-1.6,2.5-2.5
		s1.7-1.7,2.5-2.5c0.8-0.8,1.6-1.5,2.3-2.3c0.8-0.8,1.5-1.4,2.1-2c1.2-1.2,2.3-2.4,3-3.3c0.7-0.9,1.1-1.7,1.4-2.4
		c0.3-0.7,0.5-1.4,0.5-2C101.9,11.3,101.9,10.7,101.8,10.2z"/>
	<path id="Vector_13_1_" class="st0" d="M148.8,18c-0.3-0.2-0.7-0.4-1.1-0.5c-0.4-0.1-0.6-0.1-1.1-0.1h-1.4L143,34.8
		c-0.1,0.7-0.1,1,0.1,1.4c0.1,0.5,0.4,0.9,0.7,1.2c0.3,0.3,0.8,0.6,1.2,0.7c0.4,0.1,0.8,0.1,1.3,0.1h1.5l2.1-17.5
		c0.1-0.9,0-1.3-0.2-1.8C149.5,18.6,149.2,18.2,148.8,18z"/>
	<path id="Vector_14_1_" class="st0" d="M141,23c-0.4-1.4-1.1-2.5-1.9-3.4c-0.8-0.9-1.8-1.5-3-1.9c-1.2-0.4-2.3-0.5-3.5-0.4
		c-0.6,0-1.2,0.2-1.8,0.4c-0.6,0.2-1.1,0.4-1.5,0.7c-0.4,0.2-0.8,0.5-1.2,0.7c-0.3,0.2-0.5,0.4-0.7,0.5c0-0.1,0-0.1,0-0.1
		c0-0.1,0-0.2-0.1-0.3c0-0.1-0.1-0.2-0.1-0.2c-0.2-0.4-0.5-0.8-0.8-1.1c-0.3-0.2-0.7-0.4-1.2-0.5c-0.4-0.1-1-0.1-1-0.1h-1.5
		l-2.1,17.5c-0.1,0.8,0,1.3,0.2,1.8c0.2,0.4,0.5,0.8,0.8,1.1c0.3,0.2,0.7,0.4,1.2,0.5c0.4,0.1,0.6,0.1,1,0.1c0,0,0,0,0,0h1.5
		l1.3-10.5c0.2-1.3,0.4-2.3,0.8-3.2c0.4-0.8,0.8-1.5,1.4-2c0.5-0.5,1.1-0.8,1.8-1.1c0.6-0.2,1.3-0.3,1.9-0.3c0.6,0,1.2,0.2,1.7,0.4
		s0.9,0.6,1.3,1.1c0.3,0.5,0.5,1.2,0.7,2.1c0.1,0.9,0.1,2-0.1,3.4l-0.8,6.5c-0.1,0.9,0,1.4,0.2,1.8c0.2,0.4,0.5,0.8,0.8,1.1
		c0.3,0.2,0.7,0.4,1.2,0.5c0.4,0.1,0.6,0.1,1,0.1h0h1.5l1.3-10.3C141.5,26.1,141.4,24.4,141,23z"/>
	<path id="Vector_15_1_" class="st0" d="M119,20.8c-0.5-1.2-1.1-2-1.9-2.5c-0.8-0.5-1.8-0.9-2.7-1c-1-0.2-2.5-0.4-4.2-0.4
		c-2.4,0-4.5,0.3-5.2,0.7c-0.1,0.1-0.2,0.1-0.2,0.1c-0.4,0.2-0.7,0.6-0.9,0.9c-0.2,0.3-0.3,0.7-0.4,1.1c-0.1,0.4-0.1,0.5-0.1,1.1
		c0,0.4-0.1,0.7-0.1,0.7l0.1,0c1-0.2,2.7-0.4,4.6-0.4c2,0,3.8,0.2,4.8,0.4c0.7,0.1,1.3,0.5,1.6,1c0,0,0.5,0.7,0.5,1.8
		c0,0.5-0.1,1.1-0.3,1.7c-4-0.7-7.3-0.5-9.7,0.4c-2.4,0.9-3.9,2.6-4.2,5.2c-0.2,1.2-0.1,2.3,0.2,3.2c0.4,0.9,0.9,1.7,1.6,2.2
		c0.7,0.6,1.6,1,2.6,1.3c1,0.3,2.1,0.4,3.1,0.3c1.3,0,2.4-0.3,3.2-0.8c0.8-0.5,1.4-0.9,1.8-1.3c0,0,0.1,0,0.1-0.1
		c0,0,0.1,0.1,0.1,0.1c0.2,0.4,0.5,0.8,0.8,1.1c0.3,0.2,0.7,0.4,1.2,0.5c0.4,0.1,0.6,0.1,1.1,0.1h1.4l1.5-12.4
		C119.6,23.6,119.4,22,119,20.8z M113.3,31.9c-0.3,0.7-0.8,1.3-1.3,1.7c-0.5,0.4-1.1,0.7-1.7,0.8c-0.6,0.2-1.2,0.2-1.8,0.2
		c-0.5,0-1,0-1.4-0.1c-0.4-0.1-0.8-0.2-1.1-0.5c-0.3-0.2-0.5-0.5-0.7-0.9c-0.1-0.4-0.2-0.9-0.1-1.4c0.1-0.6,0.2-1.1,0.5-1.5
		c0.3-0.4,0.6-0.7,1-1c0.4-0.2,0.8-0.4,1.3-0.5c0.4-0.1,0.9-0.2,1.3-0.2c0.7,0,1.3,0,1.9,0.1c0.6,0,1.1,0.1,1.5,0.2
		c0.5,0.1,0.9,0.2,1.3,0.3C113.9,30.3,113.7,31.2,113.3,31.9z"/>
	<path id="Vector_16_1_" class="st0" d="M169.6,20.8c-0.5-1.2-1.1-2-1.9-2.5c-0.8-0.5-1.8-0.9-2.7-1c-1-0.2-2.5-0.4-4.2-0.4
		c-2.4,0-4.5,0.3-5.2,0.7c-0.1,0.1-0.2,0.1-0.2,0.1c-0.4,0.2-0.7,0.6-0.9,0.9c-0.2,0.3-0.3,0.7-0.4,1.1c-0.1,0.4-0.1,0.5-0.1,1.1
		c0,0.4-0.1,0.7-0.1,0.7l0.1,0c1-0.2,2.7-0.4,4.6-0.4c2,0,3.8,0.2,4.8,0.4c0.7,0.1,1.3,0.5,1.6,1c0,0,0.5,0.7,0.5,1.8
		c0,0.5-0.1,1.1-0.3,1.7c-4-0.7-7.3-0.5-9.7,0.4c-2.4,0.9-3.9,2.6-4.2,5.2c-0.2,1.2-0.1,2.3,0.2,3.2c0.4,0.9,0.9,1.7,1.6,2.2
		c0.7,0.6,1.6,1,2.6,1.3c1,0.3,2.1,0.4,3.1,0.3c1.3,0,2.4-0.3,3.2-0.8c0.8-0.5,1.4-0.9,1.8-1.3c0,0,0.1,0,0.1-0.1
		c0,0,0.1,0.1,0.1,0.1c0.2,0.4,0.5,0.8,0.8,1.1c0.3,0.2,0.7,0.4,1.2,0.5c0.4,0.1,0.6,0.1,1.1,0.1h1.4l1.5-12.4
		C170.1,23.6,170,22,169.6,20.8z M163.9,31.9c-0.3,0.7-0.8,1.3-1.3,1.7c-0.5,0.4-1.1,0.7-1.7,0.8c-0.6,0.2-1.2,0.2-1.8,0.2
		c-0.5,0-1,0-1.4-0.1c-0.4-0.1-0.8-0.2-1.1-0.5c-0.3-0.2-0.5-0.5-0.7-0.9c-0.1-0.4-0.2-0.9-0.1-1.4c0.1-0.6,0.2-1.1,0.5-1.5
		c0.3-0.4,0.6-0.7,1-1c0.4-0.2,0.8-0.4,1.3-0.5c0.4-0.1,0.9-0.2,1.3-0.2c0.7,0,1.3,0,1.9,0.1c0.6,0,1.1,0.1,1.5,0.2
		c0.5,0.1,0.9,0.2,1.3,0.3C164.5,30.3,164.3,31.2,163.9,31.9z"/>
	<path id="Vector_17_1_" class="st0" d="M13.1,38.4l3.5-28.5h1.6c0.1,0,0.2,0,0.4,0c0.1,0,0.2,0,0.2,0c0.3,0,0.5,0,0.8,0.1
		c0.5,0.1,1,0.3,1.3,0.6c0.4,0.3,0.7,0.7,1,1.2c0.2,0.5,0.3,1.5,0.2,2.5l-0.9,7.1l11-11c-0.1,0-0.2-0.1-0.2-0.1
		c-1.5-0.3-2.7-0.7-3.5-1c-1.3-0.5-2.2-1-3-1.5c-0.6-0.4-1.2-0.7-1.9-1.1c-0.7-0.4-1.6-0.7-2.6-1.1c-1.7-0.6-3.7-0.9-5.8-0.9
		c-1.9,0-3.5,0.2-5,0.6C8.8,5.7,7.7,6.1,6.5,6.7c0,0-1.3,0.6-2.7,1.6L0,38.5c-0.2,1.1,0.7,1.6,1.5,1.5c0.1,0,0.4-0.2,0.7-0.3
		c0.8-0.3,1.5-0.6,2.2-0.8c2.7-0.8,5.6-1,8.4-0.6C12.8,38.3,13,38.3,13.1,38.4z"/>
	<path id="Vector_18_1_" class="st1" d="M47.1,7.2c-0.4,0-0.7,0.1-0.8,0.2c-0.5,0.4-1,0.7-1.5,0.9c-0.8,0.4-1.5,0.7-1.5,0.7
		c-0.4,0.2-0.7,0.3-1,0.4C41.8,9.7,41.4,9.9,41,10L26.8,24.2c0.1,0.1,0.2,0.1,0.3,0.2l12.4,12.4c-0.6,0.7-1.3,1.2-1.3,1.2
		c-0.7,0.4-1.6,0.6-2.4,0.6c-3.3,0-6.3-3.3-6.3-3.3l-7.1-7.1l-1.8-1.8l-1.7,13.9c0.2,0.1,0.4,0.2,0.4,0.2c0.1,0,0.8,0.4,0.8,0.4
		c0.2,0.1,1,0.5,1,0.5c0.3,0.1,0.6,0.3,0.9,0.4c0.6,0.2,1.2,0.4,1.7,0.6c0.7,0.2,1.4,0.4,2.2,0.5c0,0,0.3,0.1,0.7,0.1
		c0.6,0.1,1.3,0.1,2.2,0.2c0.4,0,0.8,0,1.4,0c0.4,0,0.8-0.1,1.3-0.1c0.4-0.1,0.8-0.1,1.1-0.2c0.3-0.1,0.5-0.1,0.8-0.2
		c0.8-0.2,1.7-0.5,2.6-0.8c0.4-0.2,0.9-0.4,1.3-0.6c0.4-0.2,0.9-0.4,1.3-0.7c0.2-0.1,0.9-0.5,1.7-1.1c0.7-0.5,1.3-1,1.9-1.6
		c0.4-0.4,1-1,1.9-2c0.1-0.1,0.8-1,1-1.4l3.2-26.1c0-0.2-0.1-0.6-0.3-0.9C47.8,7.5,47.4,7.3,47.1,7.2z"/>
</g>
</svg>
