<svg xmlns="http://www.w3.org/2000/svg" viewBox="0 0 48 48" enable-background="new 0 0 48 48"><style type="text/css">.st0{fill:#BD234F;}</style><path id="Ticket_3_" class="st0" d="M46.5 28.2l-16.4-16.4c-.2-.2-.4-.3-.6-.4-.2-.1-.5-.1-.7-.1l-1.4.1h-.3c-.1 0-.2-.1-.3-.2l-.2-.3c0-.1-.1-.2 0-.3l.1-1.4c0-.2 0-.5-.1-.7-.1-.2-.2-.4-.4-.6l-6.5-6.5c-.2-.2-.4-.3-.6-.3-.2 0-.5.1-.6.3l-2.2 2.2c-.1.1-.2.2-.2.3 0 .1 0 .3.1.4.2.3.3.7.3 1 0 .4-.1.7-.3 1-.2.3-.4.5-.7.6-.3.1-.6.2-.9.2-.3 0-.6-.1-.8-.2-.1-.1-.2-.1-.4-.1-.1 0-.3.1-.3.2l-1.3 1.3c-.1.1-.2.2-.2.4 0 .1 0 .3.1.4.2.3.3.6.3 1s-.1.7-.3 1c-.2.4-.6.7-1.1.8-.4.1-.9.1-1.3-.1l-.3-.1c-.1-.1-.3-.1-.4-.1-.1 0-.3.1-.4.2l-1.2 1.3c-.1.1-.2.2-.2.3 0 .1 0 .3.1.4.2.3.2.6.2.9 0 .3-.1.6-.3.9-.2.3-.4.5-.7.7-.3.2-.6.2-.9.2-.3 0-.6-.1-.9-.2-.1-.1-.2-.1-.4-.1-.1 0-.2.1-.3.2l-2.1 2.1c-.2.2-.3.4-.3.6 0 .2.1.5.3.6l6.4 6.4c.2.2.4.3.6.4.2.1.5.1.7.1l1.4-.1h.3c.1 0 .2.1.3.2l.2.3c0 .1.1.2 0 .3l-.1 1.4c0 .2 0 .5.1.7.1.2.2.4.4.6l16.4 16.4c.2.2.4.3.6.3.2 0 .5-.1.6-.3l2.2-2.2c.1-.1.1-.2.1-.3 0-.1 0-.2-.1-.3-.2-.3-.3-.7-.4-1 0-.4.1-.7.3-1.1.2-.4.6-.7 1.1-.8.4-.1.9-.1 1.3.1l.3.2c.1.1.2.1.3.1l.3-.1 1.5-1.5c.1-.1.1-.2.1-.3 0-.1 0-.2-.1-.3-.2-.3-.2-.6-.2-.9 0-.3.1-.6.2-.9.2-.4.5-.6.9-.7.8-.3 1.3-.2 1.6 0 .1.1.2.1.3.1l.3-.1 1.5-1.5.2-.3s0-.2-.1-.3c-.2-.3-.3-.7-.3-1.1 0-.4.1-.8.4-1.1.2-.3.5-.5.8-.6.3-.1.7-.2 1-.1.3 0 .5.1.7.3.1.1.2.1.3.1l.3-.1 2.1-2.1c.2-.2.3-.4.3-.6.1-.4 0-.7-.1-.8zm-32.4-3.5l-.5.5c-.2.2-.4.2-.6.2-.2 0-.4-.1-.6-.2-.2-.2-.2-.4-.2-.6 0-.2.1-.4.2-.6l.5-.5c.2-.2.4-.2.6-.2.2 0 .4.1.6.2.2.2.2.4.2.6.1.2 0 .4-.2.6zm3.6-3.6l-.8.8-.3.2-.3.1c-.1 0-.2 0-.3-.1-.1 0-.2-.1-.3-.2l-.2-.3-.1-.3c0-.1 0-.2.1-.3 0-.1.1-.2.2-.3l.8-.8c.2-.2.4-.2.6-.2.2 0 .4.1.6.2.2.2.2.4.2.6s-.1.5-.2.6zm3.5-3.5l-.8.8c-.2.2-.4.2-.6.2-.2 0-.4-.1-.6-.2-.1-.2-.2-.4-.2-.6s.1-.4.2-.6l.8-.8c.2-.2.4-.2.6-.2.2 0 .4.1.6.2.2.2.2.4.2.6s-.1.5-.2.6zm1.6-3.9l.5-.5.3-.2.3-.1c.1 0 .2 0 .3.1.1 0 .2.1.3.2l.2.3.1.3c0 .1 0 .2-.1.3 0 .1-.1.2-.2.3l-.5.5c-.2.2-.4.2-.6.2s-.4-.1-.6-.2c-.2-.2-.2-.4-.2-.6s0-.5.2-.6zm13.5 12l-6 2.4-.2.1c-.1.1-.1.1-.1.2v.2l.1.2c1 1.1 2 2.2 3 3.2 0 0 .1.1.2.1h.2c.7-.1 1.4-.2 2-.4h.3c.1 0 .2.1.2.1l.1.1c.1.1.1.1.1.2v.3c0 .1 0 .2-.1.2 0 .1-.1.1-.2.2-.3.2-.5.3-.8.4-.8.3-1.4 1-1.7 1.7-.1.3-.3.6-.5.9 0 .1-.1.1-.2.2l-.2.1h-.2l-.2-.1-.1-.2v-.4c.1-.7.2-1.4.3-2v-.2l-.1-.2c-.9-.8-2.7-2.4-3.4-3.1l-.1-.1h-.1s-.1 0-.1.1l-.1.1c-.3.9-1.2 3.2-1.7 4.5-.2.6-.4 1.2-.7 1.8 0 .1-.1.2-.1.2-.1.1-.1.1-.2.1h-.3c-.1 0-.2-.1-.2-.2l-.4-.5c-.1-.1-.1-.2-.1-.3l.5-4c.2-1.3.4-2.8.5-4.1 0-.3-.1-.6-.3-.8l-1.7-1.8c-.3-.3-.6-.7-.7-1.2v-.6c.1-.2.2-.3.4-.4.1-.1.3-.1.4-.1l.4.1c.4.2.8.5 1.1.8.6.5 1.1 1.1 1.7 1.7l.2.2h.3c.9-.2 1.8-.3 2.7-.4l5.5-.8h.3c.1 0 .2.1.2.1l.5.5c.1.1.1.1.1.2v.2l-.1.2c-.2.3-.3.3-.4.3z"/></svg>