<svg xmlns="http://www.w3.org/2000/svg" viewBox="0 0 48 48" enable-background="new 0 0 48 48"><style type="text/css">.st0{fill:#BD234F;}</style><path id="Vector_19_6_" class="st0" d="M47.5 30l-4.5-21c-.1-.4-.3-.8-.5-1.2-.2-.4-.6-.7-.9-.9-.4-.2-.8-.4-1.2-.5-.4-.1-.9-.1-1.3 0l-36 7.6c-.4.1-.8.3-1.2.5-.4.2-.7.6-.9.9-.2.4-.4.8-.5 1.2-.1.4-.1.9 0 1.3l3.7 17.5-.6-3 42.5-9 1.1 5.4-42.5 9 .3 1.2c.2.9.7 1.6 1.4 2.1s1.6.6 2.5.5l36-7.6c.4-.1.8-.3 1.2-.5.4-.2.7-.6.9-.9.2-.4.4-.8.5-1.2.1-.6 0-1 0-1.4zm-36.7-4.2c-.9.3-1.9.3-2.8 0-.9-.3-1.7-.8-2.3-1.6-.6-.7-1-1.7-1.1-2.6-.1-1 .1-1.9.6-2.8.5-.8 1.2-1.5 2-2 .8-.4 1.8-.6 2.8-.5 1 .1 1.9.5 2.6 1.1.7.6 1.3 1.4 1.5 2.4.2.6.2 1.3.2 1.9-.1.6-.3 1.2-.6 1.8-.3.6-.7 1.1-1.2 1.5-.5.3-1.1.6-1.7.8z"/></svg>