<?xml version="1.0" encoding="utf-8"?>
<!-- Generator: Adobe Illustrator 22.0.1, SVG Export Plug-In . SVG Version: 6.00 Build 0)  -->
<svg version="1.1" id="Layer_1" xmlns="http://www.w3.org/2000/svg" xmlns:xlink="http://www.w3.org/1999/xlink" x="0px" y="0px"
	 viewBox="0 0 30 30" style="enable-background:new 0 0 30 30;" xml:space="preserve">
<style type="text/css">
	.st0{fill:#BD234F;}
</style>
<path id="Vector_6_1_" class="st0" d="M23.4,0H6C2.7,0,0,2.7,0,6v18c0,3.3,2.7,6,6,6h17.4c3.3,0,6-2.7,6-6V6C29.4,2.7,26.7,0,23.4,0
	z M23.1,11.5c0,0.1,0,0.3,0,0.5c0,4.9-3.7,10.5-10.5,10.5c-2.1,0-4-0.6-5.7-1.7c0.3,0,0.6,0.1,0.9,0.1c1.7,0,3.3-0.6,4.6-1.6
	c-1.6,0-3-1.1-3.5-2.6c0.2,0.1,0.5,0.1,0.7,0.1c0.3,0,0.7,0,1-0.1c-1.7-0.3-3-1.8-3-3.6c0,0,0,0,0,0c0.5,0.3,1.1,0.4,1.7,0.5
	c-1-0.7-1.6-1.8-1.6-3.1c0-0.7,0.2-1.3,0.5-1.9c1.8,2.2,4.5,3.7,7.6,3.9c-0.1-0.3-0.1-0.6-0.1-0.8c0-2,1.7-3.7,3.7-3.7
	c1.1,0,2,0.4,2.7,1.2c0.8-0.2,1.6-0.5,2.3-0.9c-0.3,0.9-0.9,1.6-1.6,2c0.8-0.1,1.5-0.3,2.1-0.6C24.5,10.4,23.9,11,23.1,11.5z"/>
</svg>
