<svg xmlns="http://www.w3.org/2000/svg" viewBox="0 0 48 48" enable-background="new 0 0 48 48"><style type="text/css">.st0{fill:#BD234F;}</style><path id="Clock" class="st0" d="M24 1.1c-4.5 0-9 1.3-12.7 3.9-3.8 2.4-6.8 6-8.5 10.2-1.7 4.2-2.2 8.8-1.3 13.3.9 4.5 3.1 8.5 6.3 11.7 3.2 3.2 7.3 5.4 11.7 6.3 4.5.9 9.1.4 13.3-1.3 4.2-1.7 7.8-4.7 10.3-8.5 2.5-3.8 3.9-8.2 3.9-12.7 0-3-.6-6-1.7-8.8-1.2-2.8-2.8-5.3-5-7.4-2.1-2.1-4.7-3.8-7.4-5-2.9-1.2-5.9-1.7-8.9-1.7zm11.4 22.4l-9.5 5.9c-.3.2-.6.3-.9.3-.3.1-.6 0-1 0-.3-.1-.6-.2-.9-.4-.3-.2-.5-.4-.7-.7l-.1-.2c-.2-.4-.3-.8-.3-1.3v-17.6c0-.7.3-1.3.7-1.7.6-.6 1.2-.8 1.9-.8s1.3.3 1.7.7c.5.5.7 1.1.7 1.8v13.5l5.8-3.6c.3-.2.6-.3.9-.3.3-.1.6 0 1 0 .3.1.6.2.9.4.3.2.5.4.7.7.2.3.3.6.3.9.1.3 0 .6 0 1-.1.3-.2.6-.4.9-.3.2-.5.4-.8.5z"/></svg>