<?xml version="1.0" encoding="utf-8"?>
<!-- Generator: Adobe Illustrator 22.0.1, SVG Export Plug-In . SVG Version: 6.00 Build 0)  -->
<svg version="1.1" id="Layer_1" xmlns="http://www.w3.org/2000/svg" xmlns:xlink="http://www.w3.org/1999/xlink" x="0px" y="0px"
	 viewBox="0 0 30 30" style="enable-background:new 0 0 30 30;" xml:space="preserve">
<style type="text/css">
	.st0{fill:#BD234F;}
</style>
<g>
	<path id="Vector_1_" class="st0" d="M13.1,17.8l5.9-3l-5.9-3.1V17.8z"/>
	<path id="Vector_2_1_" class="st0" d="M23.7,0H6.3c-3.3,0-6,2.7-6,6v18c0,3.3,2.7,6,6,6h17.4c3.3,0,6-2.7,6-6V6
		C29.7,2.7,27,0,23.7,0z M26.2,15.8c0,1.8-0.2,3.5-0.2,3.5s-0.2,1.5-0.9,2.2c-0.8,0.9-1.8,0.9-2.2,0.9c-3,0.2-7.6,0.2-7.6,0.2
		s-5.7-0.1-7.4-0.2c-0.5-0.1-1.6-0.1-2.4-0.9c-0.7-0.7-0.9-2.2-0.9-2.2s-0.2-1.8-0.2-3.5v-1.6c0-1.8,0.2-3.5,0.2-3.5
		s0.2-1.5,0.9-2.2c0.8-0.9,1.8-0.9,2.2-0.9c3-0.2,7.6-0.2,7.6-0.2h0c0,0,4.6,0,7.6,0.2c0.4,0.1,1.4,0.1,2.2,0.9
		c0.6,0.7,0.9,2.2,0.9,2.2s0.2,1.8,0.2,3.5L26.2,15.8L26.2,15.8z"/>
</g>
</svg>
